<svg xmlns="http://www.w3.org/2000/svg" viewBox="0 0 320 180">
  <polygon id="cape_far" fill="#6C7086" points="134,68 115,64 80,76 45,111 68,134 108,126 130,101 144,74"/>
  <polygon id="cape_main" fill="#6C7086" points="138,68 121,68 91,80 52,118 76,153 118,140 148,112 154,84 146,72"/>
  <polygon id="cape_near" fill="#CDD6F4" points="144,70 132,77 118,96 108,128 140,144 178,130 196,96 158,76"/>
  <polygon id="cape_lower" fill="#6C7086" points="136,92 118,110 96,145 122,166 158,156 174,126 148,96"/>
  <polygon id="ribbon_far" fill="#6C7086" points="136,66 107,60 66,62 86,73 126,72"/>
  <polygon id="ribbon_near" fill="#B4BEFE" points="146,72 180,68 220,74 204,85 160,82"/>
</svg>
