<svg xmlns="http://www.w3.org/2000/svg" viewBox="0 0 320 180">
  <polygon id="cape_far" fill="#6C7086" points="134,68 124,60 96,64 62,92 78,118 112,116 134,98 144,74"/>
  <polygon id="cape_main" fill="#6C7086" points="138,68 128,62 104,70 72,106 84,138 124,132 150,108 154,84 146,72"/>
  <polygon id="cape_near" fill="#CDD6F4" points="144,70 136,74 126,90 124,120 154,136 198,124 218,92 158,76"/>
  <polygon id="cape_lower" fill="#6C7086" points="136,92 124,106 108,138 136,160 168,150 182,122 148,96"/>
  <polygon id="ribbon_far" fill="#6C7086" points="136,66 116,56 76,54 94,68 126,72"/>
  <polygon id="ribbon_near" fill="#B4BEFE" points="146,72 184,60 240,60 218,78 160,82"/>
</svg>
