<svg xmlns="http://www.w3.org/2000/svg" viewBox="0 0 320 180">
  <polygon id="cape_far" fill="#6C7086" points="134,68 116,62 82,72 42,106 64,130 106,124 130,100 144,74"/>
  <polygon id="cape_main" fill="#6C7086" points="138,68 122,66 92,76 48,114 70,150 116,138 148,112 154,84 146,72"/>
  <polygon id="cape_near" fill="#CDD6F4" points="144,70 132,76 116,94 104,126 136,142 176,128 194,94 158,76"/>
  <polygon id="cape_lower" fill="#6C7086" points="136,92 116,108 92,142 118,164 156,154 172,124 148,96"/>
  <polygon id="ribbon_far" fill="#6C7086" points="136,66 108,58 68,58 86,70 126,72"/>
  <polygon id="ribbon_near" fill="#B4BEFE" points="146,72 178,66 218,70 204,82 160,82"/>
</svg>
