<svg xmlns="http://www.w3.org/2000/svg" viewBox="0 0 320 180">
  <polygon id="cape_far" fill="#6C7086" points="134,68 118,60 86,70 50,108 70,136 114,128 136,102 144,74"/>
  <polygon id="cape_main" fill="#6C7086" points="138,68 146,72 154,84 170,122 242,152 310,122 270,82 184,64 136,62"/>
  <polygon id="cape_near" fill="#CDD6F4" points="144,70 158,76 180,120 246,164 318,142 312,104 220,78 164,68"/>
  <polygon id="cape_lower" fill="#6C7086" points="136,92 148,96 150,132 190,174 258,174 230,140 166,104"/>
  <polygon id="ribbon_far" fill="#6C7086" points="136,66 108,54 62,58 88,72 126,72"/>
  <polygon id="ribbon_near" fill="#B4BEFE" points="146,72 210,58 310,64 280,90 160,82"/>
</svg>
