<svg xmlns="http://www.w3.org/2000/svg" viewBox="0 0 320 180">
  <rect fill="#6C7086" x="34" y="112" width="252" height="34"/>
  <rect fill="#B4BEFE" x="36" y="110" width="248" height="4"/>
  <rect fill="#CDD6F4" x="48" y="122" width="6" height="18"/>
  <rect fill="#CDD6F4" x="54" y="130" width="8" height="4"/>
  <rect fill="#CDD6F4" x="62" y="122" width="6" height="18"/>
  <rect fill="#CDD6F4" x="78" y="122" width="6" height="18"/>
  <rect fill="#CDD6F4" x="84" y="126" width="6" height="4"/>
  <rect fill="#CDD6F4" x="90" y="130" width="6" height="4"/>
  <rect fill="#CDD6F4" x="96" y="122" width="6" height="18"/>
  <rect fill="#CDD6F4" x="112" y="122" width="6" height="18"/>
  <rect fill="#CDD6F4" x="128" y="122" width="18" height="4"/>
  <rect fill="#CDD6F4" x="128" y="122" width="4" height="18"/>
  <rect fill="#CDD6F4" x="142" y="130" width="4" height="10"/>
  <rect fill="#CDD6F4" x="136" y="130" width="10" height="4"/>
  <rect fill="#CDD6F4" x="158" y="122" width="5" height="18"/>
  <rect fill="#CDD6F4" x="178" y="122" width="5" height="18"/>
  <rect fill="#CDD6F4" x="163" y="130" width="15" height="4"/>
  <rect fill="#CDD6F4" x="196" y="122" width="22" height="4"/>
  <rect fill="#CDD6F4" x="204" y="122" width="6" height="18"/>
  <rect fill="#CDD6F4" x="228" y="122" width="22" height="4"/>
  <rect fill="#CDD6F4" x="236" y="122" width="6" height="18"/>
  <rect fill="#CDD6F4" x="258" y="122" width="5" height="8"/>
  <rect fill="#CDD6F4" x="275" y="122" width="5" height="8"/>
  <rect fill="#CDD6F4" x="264" y="130" width="12" height="4"/>
  <rect fill="#CDD6F4" x="268" y="134" width="5" height="6"/>
  <rect fill="#B4BEFE" x="44" y="150" width="232" height="4"/>
</svg>
