<svg xmlns="http://www.w3.org/2000/svg" viewBox="0 0 320 180">
  <polygon fill="#6C7086" points="144,33 166,30 178,43 166,58 142,56 132,43"/>
  <circle fill="#CDD6F4" cx="154" cy="44" r="10"/>
  <polygon fill="#CDD6F4" points="143,57 167,58 176,95 137,95"/>
  <polygon fill="#6C7086" points="150,63 170,66 167,86 143,84"/>
  <polygon fill="#CDD6F4" points="137,95 153,95 149,151 133,151"/>
  <polygon fill="#CDD6F4" points="163,95 176,98 187,150 170,150"/>
  <polygon fill="#CDD6F4" points="135,68 151,71 124,103 111,98"/>
  <polygon fill="#CDD6F4" points="168,67 185,72 211,91 203,103 174,88"/>
  <polygon fill="#B4BEFE" points="87,128 98,121 258,51 263,59 104,136"/>
  <polygon fill="#B4BEFE" points="254,47 276,50 260,66"/>
</svg>
