<svg xmlns="http://www.w3.org/2000/svg" viewBox="0 0 320 180">
  <polygon fill="#6C7086" points="131,33 153,30 165,44 153,59 130,56 120,43"/>
  <circle fill="#CDD6F4" cx="143" cy="45" r="10"/>
  <polygon fill="#CDD6F4" points="131,58 156,58 164,95 126,96"/>
  <polygon fill="#6C7086" points="138,64 159,66 156,86 133,84"/>
  <polygon fill="#CDD6F4" points="127,96 143,95 140,151 125,151"/>
  <polygon fill="#CDD6F4" points="153,95 166,98 178,150 162,150"/>
  <polygon fill="#6C7086" points="122,68 134,72 122,101 109,98"/>
  <polygon fill="#CDD6F4" points="157,68 170,73 181,100 167,106"/>
  <polygon fill="#B4BEFE" points="104,119 114,114 250,48 254,54 119,124"/>
  <polygon fill="#B4BEFE" points="247,45 265,46 253,59"/>
</svg>
