<svg xmlns="http://www.w3.org/2000/svg" viewBox="0 0 320 180">
  <polygon fill="#6C7086" points="133,33 154,30 166,43 154,58 131,56 121,43"/>
  <circle fill="#CDD6F4" cx="144" cy="44" r="10"/>
  <polygon fill="#CDD6F4" points="132,57 157,58 166,95 127,95"/>
  <polygon fill="#6C7086" points="139,63 160,66 157,86 134,84"/>
  <polygon fill="#CDD6F4" points="127,95 143,95 139,151 123,151"/>
  <polygon fill="#CDD6F4" points="154,95 166,98 177,150 160,150"/>
  <polygon fill="#CDD6F4" points="124,67 139,69 116,104 102,100"/>
  <polygon fill="#CDD6F4" points="156,67 172,71 192,89 184,101 162,88"/>
  <polygon fill="#B4BEFE" points="78,136 89,128 222,62 226,69 95,142"/>
  <polygon fill="#B4BEFE" points="219,58 237,60 224,73"/>
</svg>
