<svg xmlns="http://www.w3.org/2000/svg" viewBox="0 0 320 180">
  <polygon fill="#6C7086" points="125,36 145,31 157,43 148,57 126,55 116,43"/>
  <circle fill="#CDD6F4" cx="137" cy="44" r="10"/>
  <polygon fill="#CDD6F4" points="126,58 149,57 156,94 120,95"/>
  <polygon fill="#6C7086" points="132,63 152,64 149,85 127,84"/>
  <polygon fill="#CDD6F4" points="121,95 136,94 132,151 117,151"/>
  <polygon fill="#CDD6F4" points="145,94 158,96 171,148 155,149"/>
  <polygon fill="#6C7086" points="116,68 128,71 115,101 102,97"/>
  <polygon fill="#CDD6F4" points="150,67 164,71 176,97 162,103"/>
  <polygon fill="#B4BEFE" points="94,124 104,118 226,54 231,60 109,128"/>
  <polygon fill="#B4BEFE" points="222,51 240,52 228,65"/>
</svg>
