<svg xmlns="http://www.w3.org/2000/svg" viewBox="0 0 320 180">
  <polygon fill="#6C7086" points="149,34 172,31 184,45 171,60 146,57 136,44"/>
  <circle fill="#CDD6F4" cx="159" cy="46" r="10"/>
  <polygon fill="#CDD6F4" points="147,59 172,60 181,96 141,97"/>
  <polygon fill="#6C7086" points="154,65 175,68 171,88 147,86"/>
  <polygon fill="#CDD6F4" points="141,97 157,97 154,152 138,153"/>
  <polygon fill="#CDD6F4" points="167,96 181,99 192,151 175,151"/>
  <polygon fill="#CDD6F4" points="139,70 156,72 126,104 113,98"/>
  <polygon fill="#CDD6F4" points="172,68 190,72 220,88 214,102 179,88"/>
  <polygon fill="#B4BEFE" points="70,134 82,126 273,48 278,57 88,142"/>
  <polygon fill="#B4BEFE" points="268,44 290,47 274,64"/>
</svg>
