<svg xmlns="http://www.w3.org/2000/svg" viewBox="0 0 320 180">
  <polygon fill="#6C7086" points="136,34 157,31 168,45 156,60 133,57 123,44"/>
  <circle fill="#CDD6F4" cx="146" cy="46" r="10"/>
  <polygon fill="#CDD6F4" points="135,59 159,60 168,96 130,96"/>
  <polygon fill="#6C7086" points="141,65 162,68 159,88 136,86"/>
  <polygon fill="#CDD6F4" points="130,96 145,96 138,152 122,151"/>
  <polygon fill="#CDD6F4" points="156,96 169,99 179,150 162,151"/>
  <polygon fill="#CDD6F4" points="125,69 140,70 111,101 98,96"/>
  <polygon fill="#CDD6F4" points="160,68 176,73 199,84 193,98 165,87"/>
  <polygon fill="#B4BEFE" points="63,137 75,128 224,58 228,66 81,144"/>
  <polygon fill="#B4BEFE" points="221,54 241,57 226,72"/>
</svg>
