<svg xmlns="http://www.w3.org/2000/svg" viewBox="0 0 320 180">
  <polygon fill="#6C7086" points="148,37 171,34 182,48 169,63 144,60 134,47"/>
  <circle fill="#CDD6F4" cx="158" cy="49" r="10"/>
  <polygon fill="#CDD6F4" points="146,62 171,63 181,98 140,99"/>
  <polygon fill="#6C7086" points="153,68 174,71 171,91 146,89"/>
  <polygon fill="#CDD6F4" points="140,99 156,99 148,154 132,153"/>
  <polygon fill="#CDD6F4" points="166,98 180,100 197,146 180,151"/>
  <polygon fill="#CDD6F4" points="137,73 155,73 118,96 107,88"/>
  <polygon fill="#CDD6F4" points="170,70 189,73 219,78 216,92 177,88"/>
  <polygon fill="#B4BEFE" points="32,145 44,134 286,32 292,42 50,156"/>
  <polygon fill="#B4BEFE" points="280,28 310,30 290,50"/>
</svg>
