<svg xmlns="http://www.w3.org/2000/svg" viewBox="0 0 320 180">
  <polygon fill="#6C7086" points="139,36 160,33 171,47 158,62 135,59 126,46"/>
  <circle fill="#CDD6F4" cx="149" cy="48" r="10"/>
  <polygon fill="#CDD6F4" points="137,61 161,62 170,98 130,98"/>
  <polygon fill="#6C7086" points="143,67 164,70 160,90 136,88"/>
  <polygon fill="#CDD6F4" points="130,98 145,98 132,152 116,151"/>
  <polygon fill="#CDD6F4" points="157,98 170,100 190,145 174,150"/>
  <polygon fill="#CDD6F4" points="127,71 144,72 105,98 94,90"/>
  <polygon fill="#CDD6F4" points="162,70 179,75 205,82 201,96 168,88"/>
  <polygon fill="#B4BEFE" points="43,132 57,122 214,54 219,62 64,141"/>
  <polygon fill="#B4BEFE" points="211,50 233,53 217,70"/>
</svg>
