<svg xmlns="http://www.w3.org/2000/svg" viewBox="0 0 320 180">
  <polygon fill="#6C7086" points="128,34 150,30 162,43 151,58 128,56 118,43"/>
  <circle fill="#CDD6F4" cx="140" cy="44" r="10"/>
  <polygon fill="#CDD6F4" points="128,57 153,58 161,94 123,95"/>
  <polygon fill="#6C7086" points="135,63 156,65 153,85 130,84"/>
  <polygon fill="#CDD6F4" points="124,95 139,94 136,151 121,151"/>
  <polygon fill="#CDD6F4" points="150,94 162,96 174,149 158,149"/>
  <polygon fill="#6C7086" points="119,67 131,71 118,101 105,97"/>
  <polygon fill="#CDD6F4" points="154,67 167,72 178,99 164,105"/>
  <polygon fill="#B4BEFE" points="98,121 108,116 238,51 242,57 113,126"/>
  <polygon fill="#B4BEFE" points="235,48 253,49 241,62"/>
</svg>
