<svg xmlns="http://www.w3.org/2000/svg" viewBox="0 0 320 180">
  <polygon fill="#6C7086" points="132,33 153,29 166,43 154,58 130,56 120,43"/>
  <circle fill="#CDD6F4" cx="143" cy="44" r="10"/>
  <polygon fill="#CDD6F4" points="132,57 156,58 164,95 126,95"/>
  <polygon fill="#6C7086" points="139,63 159,66 156,86 133,84"/>
  <polygon fill="#CDD6F4" points="126,95 141,95 134,151 119,150"/>
  <polygon fill="#CDD6F4" points="153,95 166,98 180,148 164,150"/>
  <polygon fill="#CDD6F4" points="124,66 136,69 112,110 98,106"/>
  <polygon fill="#CDD6F4" points="156,66 172,72 196,87 188,99 164,86"/>
  <polygon fill="#B4BEFE" points="92,134 102,127 229,62 234,68 108,139"/>
  <polygon fill="#B4BEFE" points="226,58 244,59 232,73"/>
</svg>
